<svg width="339" height="101" viewBox="0 0 339 101" fill="none" xmlns="http://www.w3.org/2000/svg">
<g clip-path="url(#clip0_69_1115)">
<path d="M24.5376 62.744C25.826 62.744 26.1481 63.1734 26.1481 63.7103C26.1481 64.4619 25.1818 64.784 23.6704 64.784C17.4265 64.784 -0.00830078 58.0033 -0.00830078 38.7432C-0.00830078 19.4831 19.8051 2.79982 48.1089 2.79982C62.5292 2.79982 74.2653 4.63332 84.267 6.24384C89.6519 2.37035 95.9949 0 103.75 0C110.746 0 115.693 2.79982 115.693 6.45857C115.693 9.68786 112.463 12.3803 107.087 12.3803C100.843 12.3803 93.6328 11.1993 85.2416 9.79523C57.6894 31.8551 59.2008 100.091 22.2829 100.091C9.68782 100.091 3.98908 88.793 3.98908 87.7111C3.98908 87.2816 4.52592 86.8521 4.84802 86.8521C5.70696 86.8521 10.6624 96.8621 22.8197 96.8621C53.1717 96.8621 54.5675 33.1518 80.7239 9.15102C71.4655 7.75524 60.8113 6.35121 48.4393 6.35121C21.4157 6.35121 4.19555 22.605 4.19555 39.6021C4.19555 56.5992 18.4011 62.744 24.5376 62.744ZM89.2224 7.10278C95.3589 8.06909 100.843 8.82066 105.798 8.82066C110.316 8.82066 111.935 7.63962 111.935 6.02084C111.935 4.18734 108.813 3.00629 104.725 3.00629C98.6956 3.00629 93.641 4.50944 89.2307 7.09452L89.2224 7.10278Z" fill="#FF8980"/>
<path d="M82.3344 75.9833C76.52 75.9833 71.7876 72.5393 71.7876 66.4028C71.7876 56.3928 85.2416 45.5239 93.5254 45.5239C96.8621 45.5239 99.125 47.4648 99.125 50.149C99.125 56.6076 84.7047 62.5293 75.7685 64.784C75.5537 65.4282 75.5537 66.0724 75.5537 66.7249C75.5537 70.491 78.3535 72.8614 82.3344 72.8614C95.2515 72.8614 105.154 60.6958 105.154 60.6958C105.154 60.6958 105.691 60.0516 106.228 60.0516C106.872 60.0516 107.409 60.6958 107.409 61.2326C107.409 61.6621 106.872 62.3063 106.872 62.3063C106.872 62.3063 94.8221 75.975 82.3344 75.975V75.9833ZM76.7348 61.6704C84.9112 59.5147 95.8958 54.3528 95.8958 49.8351C95.8958 49.513 95.5737 48.5467 93.9549 48.5467C88.0331 48.5467 79.8567 55.0053 76.7348 61.6786V61.6704Z" fill="#FF8980"/>
<path d="M124.844 63.6028C120.648 68.4426 112.678 75.7602 107.194 75.7602C103.965 75.7602 101.595 73.8193 101.595 70.1605C101.595 59.6137 116.981 45.0861 128.825 45.0861C134.21 45.0861 136.357 47.8859 136.357 50.5783C136.357 52.7339 134.854 54.2371 134.094 54.2371C133.664 54.2371 133.235 53.915 133.235 53.3781C133.235 52.6266 133.557 52.1971 133.557 51.1152C133.557 50.1489 133.02 47.9932 129.791 47.9932C118.385 47.9932 105.253 61.662 105.253 70.1605C105.253 71.6637 106.005 72.6382 107.516 72.6382C112.034 72.6382 119.244 65.9649 122.796 61.662C125.703 58.2179 127.528 55.096 128.717 55.096C129.576 55.096 130.435 55.955 130.435 56.8139C130.435 57.5655 128.28 60.1506 128.28 63.8093C128.28 67.6828 130.22 69.3016 132.583 69.3016C135.704 69.3016 139.685 66.9312 145.285 60.6957C145.285 60.6957 145.822 60.0514 146.251 60.0514C146.895 60.0514 147.54 60.6957 147.54 61.2325C147.54 61.662 147.003 62.3062 147.003 62.3062C140.974 68.8721 136.027 72.1014 132.046 72.1014C127.85 72.1014 124.836 68.4426 124.836 63.6028H124.844Z" fill="#FF8980"/>
<path d="M178.544 89.8667C178.544 93.2034 181.881 96.6474 189.198 96.6474C203.511 96.6474 217.609 85.4564 217.609 72.4319C217.609 61.9925 205.667 58.4411 203.404 58.4411C201.686 58.4411 197.911 59.7295 195.335 59.7295C192.32 59.7295 191.032 58.5484 191.032 57.037C191.032 55.5256 192.749 54.3446 195.335 54.3446C197.168 54.3446 200.389 55.0962 201.686 55.0962C210.622 55.0962 237.414 43.9052 237.414 25.6114C237.414 14.2056 228.156 6.12828 206.203 6.12828C175.744 6.12828 148.836 22.3821 148.836 37.5539C148.836 44.5494 153.032 47.9934 159.061 47.9934C163.042 47.9934 165.627 46.2755 166.378 46.2755C166.915 46.2755 167.13 46.705 167.13 47.0271C167.13 47.886 163.256 50.5785 157.979 50.5785C151.306 50.5785 145.062 46.5976 145.062 37.9834C145.062 20.0117 173.58 2.79163 206.195 2.79163C230.518 2.79163 241.494 11.8353 241.494 25.504C241.494 44.9871 214.157 55.856 208.888 56.8223C208.888 56.8223 221.375 60.5884 221.375 72.4319C221.375 87.8185 205.444 99.8767 189.091 99.8767C179.403 99.8767 174.778 95.0369 174.778 90.0815C174.778 79.5347 190.379 74.5875 208.144 74.5875C209.325 74.5875 210.515 75.017 210.515 75.6612C210.515 76.3054 209.656 76.8422 208.144 76.8422C192.32 76.8422 178.544 81.4673 178.544 89.8667ZM211.374 19.1611C211.374 20.02 210.837 20.5568 209.54 21.2093C198.993 26.7016 171.978 56.4011 171.978 75.24C171.978 75.8842 171.226 76.2063 170.69 76.2063C169.723 76.2063 168.319 75.24 168.319 73.7286C168.319 53.7086 202.974 17.5505 209.648 17.5505C210.829 17.5505 211.365 18.5168 211.365 19.1611H211.374Z" fill="#FF8980"/>
<path d="M241.503 74.9095C236.77 74.9095 233.326 71.7876 233.326 66.5183C233.326 48.5466 256.897 15.5022 267.015 15.5022C269.707 15.5022 271.64 17.2201 271.64 20.0199C271.64 28.089 251.19 49.0752 237.629 61.5629C237.629 61.5629 236.663 63.066 236.663 66.5101C236.663 69.9541 238.488 71.7876 242.048 71.7876C249.365 71.7876 257.872 62.3145 259.268 60.704C259.268 60.704 259.805 60.0597 260.234 60.0597C260.878 60.0597 261.523 60.704 261.523 61.2408C261.523 61.6703 260.986 62.3145 260.986 62.3145C259.483 64.0323 249.258 74.9095 241.503 74.9095ZM238.166 57.2599C249.894 46.6058 268.518 27.0153 268.518 19.5904C268.518 19.0536 268.196 18.302 267.122 18.302C260.771 18.302 243.873 39.9325 238.174 57.2599H238.166Z" fill="#FF8980"/>
<path d="M263.464 73.8277C259.697 73.8277 257.005 71.4573 257.005 67.5838C257.005 60.2663 268.089 45.7386 269.922 45.7386C271.318 45.7386 271.64 46.7049 271.64 47.3574C271.64 47.5721 271.425 48.109 270.996 48.6458C268.411 51.7677 260.664 61.563 260.664 67.5838C260.664 69.8468 262.167 71.0278 264.215 71.0278C271.425 71.0278 280.576 60.6958 280.576 60.6958C280.576 60.6958 281.113 60.0516 281.543 60.0516C282.187 60.0516 282.831 60.6958 282.831 61.2326C282.831 61.6621 282.294 62.3063 282.294 62.3063C282.294 62.3063 271.747 73.8194 263.464 73.8194V73.8277ZM281.865 32.7141C281.865 34.655 280.031 37.3392 278.313 37.3392C277.132 37.3392 276.265 36.4802 276.265 35.3983C276.265 33.5731 277.983 30.8806 279.816 30.8806C281.212 30.8806 281.865 31.8469 281.865 32.7059V32.7141Z" fill="#FF8980"/>
<path d="M295.856 68.6656C300.266 67.4846 304.577 65.2216 308.451 60.7039C308.451 60.7039 308.987 60.0597 309.417 60.0597C310.061 60.0597 310.705 60.7039 310.705 61.2407C310.705 61.6702 310.168 62.3144 310.168 62.3144C305.436 67.6993 300.159 70.0614 295.319 71.1433C293.7 75.8758 288.967 78.8903 284.235 78.8903C280.147 78.8903 277.562 76.4126 277.562 74.1579C277.562 71.1433 279.932 69.8549 283.269 69.8549C286.283 69.8549 289.298 69.8549 292.42 69.3181C292.527 68.7812 292.635 68.137 292.635 67.4846C292.635 61.7776 289.083 58.4409 288.868 53.8158C288.868 53.8158 286.713 57.3672 282.302 62.3144C282.302 62.3144 281.766 62.8512 281.229 62.8512C280.585 62.8512 280.048 62.207 280.048 61.7776C280.048 61.3481 280.585 60.7039 280.585 60.7039C284.673 56.1862 287.902 51.1234 289.843 47.6794C291.668 44.3427 293.502 41.6503 294.79 41.6503C295.971 41.6503 296.946 43.046 296.946 43.8059C296.946 44.9869 292.321 48.5383 292.321 52.6348C292.321 57.4746 295.979 60.4891 295.979 67.5919C295.979 68.0214 295.979 68.3435 295.872 68.6656H295.856ZM291.553 71.8949C285.309 72.6465 280.684 71.7875 280.684 73.9431C280.684 75.1242 281.757 76.2061 284.342 76.2061C287.357 76.2061 290.049 74.4882 291.553 71.9032V71.8949Z" fill="#FF8980"/>
<path d="M323.73 68.6656C328.14 67.4846 332.443 65.2216 336.325 60.7039C336.325 60.7039 336.862 60.0597 337.291 60.0597C337.935 60.0597 338.58 60.7039 338.58 61.2407C338.58 61.6702 338.043 62.3144 338.043 62.3144C333.31 67.6993 328.033 70.0614 323.193 71.1433C321.574 75.8758 316.842 78.8903 312.109 78.8903C308.021 78.8903 305.436 76.4126 305.436 74.1579C305.436 71.1433 307.806 69.8549 311.143 69.8549C314.158 69.8549 317.172 69.8549 320.294 69.3181C320.401 68.7812 320.509 68.137 320.509 67.4846C320.509 61.7776 316.957 58.4409 316.743 53.8158C316.743 53.8158 314.587 57.3672 310.177 62.3144C310.177 62.3144 309.64 62.8512 309.103 62.8512C308.459 62.8512 307.922 62.207 307.922 61.7776C307.922 61.3481 308.459 60.7039 308.459 60.7039C312.547 56.1862 315.776 51.1234 317.717 47.6794C319.542 44.3427 321.376 41.6503 322.664 41.6503C323.845 41.6503 324.82 43.046 324.82 43.8059C324.82 44.9869 320.195 48.5383 320.195 52.6348C320.195 57.4746 323.854 60.4891 323.854 67.5919C323.854 68.0214 323.854 68.3435 323.746 68.6656H323.73ZM319.427 71.8949C313.183 72.6465 308.558 71.7875 308.558 73.9431C308.558 75.1242 309.632 76.2061 312.217 76.2061C315.231 76.2061 317.924 74.4882 319.427 71.9032V71.8949Z" fill="#FF8980"/>
</g>
<defs>
<clipPath id="clip0_69_1115">
<rect width="338.58" height="100.091" fill="white"/>
</clipPath>
</defs>
</svg>
