<svg width="173" height="173" viewBox="0 0 173 173" fill="none" xmlns="http://www.w3.org/2000/svg">
<g filter="url(#filter0_d_1066_1969)">
<path opacity="0.8" d="M68.998 23.9649C70.9169 19.9545 76.1497 18.9112 79.4599 21.8791C82.8618 24.9293 88.0476 24.8138 91.3104 21.6153C94.4852 18.5031 99.7592 19.3124 101.855 23.2335C104.008 27.2633 108.921 28.9284 113.081 27.0387C117.129 25.2 121.808 27.7644 122.436 32.1657C123.081 36.689 127.128 39.9339 131.683 39.581C136.116 39.2376 139.636 43.2477 138.721 47.5984C137.78 52.0696 140.473 56.5029 144.874 57.7293C149.157 58.9227 151.093 63.8948 148.745 67.6701C146.332 71.55 147.346 76.6369 151.063 79.2948C154.679 81.8809 154.798 87.2154 151.3 89.9599C147.706 92.7805 146.919 97.9075 149.502 101.676C152.016 105.343 150.303 110.397 146.077 111.779C141.735 113.2 139.242 117.749 140.381 122.174C141.488 126.48 138.151 130.642 133.707 130.497C129.14 130.347 125.242 133.769 124.799 138.316C124.367 142.741 119.807 145.511 115.681 143.854C111.441 142.152 106.607 144.034 104.635 148.155C102.716 152.166 97.4837 153.209 94.1735 150.241C90.7716 147.191 85.5858 147.306 82.323 150.505C79.1482 153.617 73.8741 152.808 71.7787 148.887C69.6251 144.857 64.7126 143.192 60.5526 145.081C56.5048 146.92 51.8256 144.356 51.1976 139.954C50.5522 135.431 46.5055 132.186 41.95 132.539C37.5175 132.882 33.9976 128.872 34.9128 124.522C35.8533 120.05 33.1605 115.617 28.7591 114.391C24.4764 113.197 22.5403 108.225 24.8883 104.45C27.3014 100.57 26.2872 95.4832 22.5707 92.8253C18.9544 90.2392 18.8357 84.9047 22.3333 82.1602C25.9279 79.3396 26.7147 74.2126 24.1313 70.4439C21.6177 66.7769 23.3306 61.7235 27.5559 60.3408C31.8984 58.9197 34.3914 54.371 33.2528 49.946C32.1449 45.6404 35.4829 41.4777 39.9263 41.6235C44.493 41.7733 48.3913 38.3515 48.8348 33.804C49.2663 29.3792 53.8267 26.6091 57.9523 28.2659C62.1923 29.9686 67.0259 28.0865 68.998 23.9649Z" fill="#FCF8EF" stroke="#9A9792" stroke-width="2"/>
<path d="M98.0581 140.663C128.44 134.606 148.159 105.066 142.102 74.6838C136.045 44.3018 106.505 24.5826 76.1229 30.6398C45.7409 36.6971 26.0217 66.237 32.0789 96.619C38.1362 127.001 67.6761 146.72 98.0581 140.663Z" stroke="#9A9792" stroke-width="2" stroke-miterlimit="10"/>
<path d="M96.7632 135.946C124.315 130.453 142.197 103.665 136.704 76.1139C131.211 48.5625 104.423 30.6805 76.8717 36.1734C49.3202 41.6663 31.4382 68.454 36.9311 96.0055C42.424 123.557 69.2118 141.439 96.7632 135.946Z" stroke="#9A9792" stroke-width="3" stroke-miterlimit="10"/>
<path d="M126.11 81.7795C128.186 81.3656 129.533 79.3474 129.119 77.2716C128.705 75.1958 126.687 73.8485 124.611 74.2624C122.535 74.6762 121.188 76.6945 121.602 78.7703C122.016 80.8461 124.034 82.1933 126.11 81.7795Z" fill="#9A9792"/>
<path d="M50.2553 96.9025C52.3311 96.4887 53.6784 94.4704 53.2645 92.3946C52.8507 90.3189 50.8324 88.9716 48.7566 89.3854C46.6808 89.7993 45.3335 91.8175 45.7474 93.8933C46.1612 95.9691 48.1795 97.3164 50.2553 96.9025Z" fill="#9A9792"/>
<path d="M70.8751 67.5802C71.6412 71.4853 74.0905 75.0921 77.9227 76.0832L76.566 78.8929C74 78.1971 71.9902 76.3573 70.5696 73.9145C70.1728 76.9188 68.9574 79.5634 66.7348 81.2761L64.3516 79.1871C67.7119 76.7497 68.6172 72.2376 67.8104 68.1912L67.1613 64.935L70.2259 64.324L70.8751 67.5802ZM80.3411 83.2188L75.9972 61.4308L79.0619 60.8198L80.7374 69.2237L83.9457 68.5841L84.4613 71.1699L81.2529 71.8095L83.4058 82.6078L80.3411 83.2188ZM105.358 66.3067L105.845 68.7488L85.9724 72.7108L85.4855 70.2686L89.9628 69.376L89.4425 66.7662C87.7095 66.3773 86.5968 65.4789 86.3176 64.0783C85.7925 61.4446 88.5804 59.2581 93.4265 58.2795C98.2414 57.332 101.655 58.2821 102.192 60.9135C102.464 62.3404 101.759 63.6136 100.269 64.6326L100.785 67.2184L105.358 66.3067ZM89.2542 77.3093C88.7529 74.7953 91.3349 72.8242 96.1139 71.8839C100.816 70.9339 103.957 71.7641 104.482 74.2734C104.971 76.852 102.384 78.7991 97.6795 79.7371C92.9029 80.6894 89.7673 79.8831 89.2542 77.3093ZM89.502 63.4434C89.7167 64.6453 91.5503 64.9146 94.6246 64.2892C97.6677 63.6949 99.2699 62.7407 99.0312 61.5436C98.7878 60.3225 96.935 60.0197 93.8943 60.6259C90.8176 61.2393 89.2346 62.2271 89.502 63.4434ZM92.3667 76.6887C92.5767 77.8045 94.2093 78.064 97.2261 77.4625C100.183 76.873 101.627 76.0001 101.417 74.8844C101.19 73.8093 99.5314 73.6048 96.5721 74.1824C93.5577 74.7958 92.14 75.6137 92.3667 76.6887ZM93.0514 68.7602L97.7442 67.8246L97.3791 65.993C96.6799 66.232 95.9089 66.423 95.0829 66.5877C94.2329 66.7572 93.4332 66.8668 92.6863 66.9286L93.0514 68.7602ZM74.4735 93.246C77.6603 92.6231 80.3025 93.951 80.8395 96.5823C81.2524 98.7156 80.0207 100.654 77.7865 101.622L78.104 103.214C79.7944 102.765 81.4633 102.271 83.0102 101.726L83.6935 103.905C79.3618 105.59 74.3911 106.693 70.7494 107.407L69.9561 105.05C71.4645 104.75 73.2219 104.387 75.0679 103.969L74.7266 102.257C72.2249 102.258 70.2937 100.938 69.8737 98.7686C69.3366 96.1373 71.2676 93.8977 74.4735 93.246ZM74.8245 114.486L73.5882 108.285L76.6529 107.674L77.4023 111.433L89.685 108.984L90.1719 111.426L74.8245 114.486ZM72.7229 98.2005C72.9639 99.5342 74.23 100.078 75.7767 99.7824C77.3426 99.4578 78.2313 98.484 77.9664 97.1552C77.6943 95.7904 76.4928 95.2582 74.9318 95.5446C73.3922 95.8764 72.4269 96.8406 72.7229 98.2005ZM85.4198 107.444L82.1071 90.8279L85.1717 90.2169L86.5369 97.0646L89.3143 96.5109L89.8203 99.0488L87.0429 99.6025L88.4845 106.833L85.4198 107.444ZM112.599 102.25L113.1 104.764L93.1555 108.74L92.6543 106.226L97.7541 105.209L97.0906 101.881L94.2893 102.44L92.8286 95.1132L105.159 92.6549L104.691 90.3085L92.3369 92.7716L91.85 90.3294L107.221 87.2648L108.663 94.4956L96.3802 96.9444L96.8623 99.3626L109.648 96.8136L110.139 99.2797L107.051 99.8955L107.714 103.224L112.599 102.25ZM100.723 104.617L104.721 103.82L104.058 100.492L100.06 101.289L100.723 104.617Z" fill="#9A9792"/>
</g>
<defs>
<filter id="filter0_d_1066_1969" x="14.7822" y="18.709" width="144.068" height="142.703" filterUnits="userSpaceOnUse" color-interpolation-filters="sRGB">
<feFlood flood-opacity="0" result="BackgroundImageFix"/>
<feColorMatrix in="SourceAlpha" type="matrix" values="0 0 0 0 0 0 0 0 0 0 0 0 0 0 0 0 0 0 127 0" result="hardAlpha"/>
<feOffset dy="4"/>
<feGaussianBlur stdDeviation="2"/>
<feComposite in2="hardAlpha" operator="out"/>
<feColorMatrix type="matrix" values="0 0 0 0 0 0 0 0 0 0 0 0 0 0 0 0 0 0 0.2 0"/>
<feBlend mode="normal" in2="BackgroundImageFix" result="effect1_dropShadow_1066_1969"/>
<feBlend mode="normal" in="SourceGraphic" in2="effect1_dropShadow_1066_1969" result="shape"/>
</filter>
</defs>
</svg>
