<svg width="current" height="current" viewBox="0 0 20 21" fill="none" xmlns="http://www.w3.org/2000/svg">
<g id="Interface / Shopping_Cart_02">
<path id="Vector" d="M2.5 2.90918H2.72362C3.11844 2.90918 3.31619 2.90918 3.47722 2.98041C3.6192 3.04321 3.74059 3.14433 3.82812 3.27254C3.92724 3.41773 3.96304 3.61159 4.03448 3.99857L5.83337 13.7426L14.5182 13.7425C14.8958 13.7425 15.0853 13.7425 15.2417 13.6758C15.3799 13.6168 15.4991 13.5214 15.5876 13.4C15.6877 13.2627 15.7301 13.0789 15.8148 12.7118L15.8154 12.7091L17.1231 7.04248L17.1234 7.04129C17.2519 6.48431 17.3164 6.20514 17.2456 5.98617C17.1835 5.79403 17.0529 5.63113 16.8797 5.52745C16.682 5.40918 16.3965 5.40918 15.8239 5.40918H4.58333M15 17.9092C14.5398 17.9092 14.1667 17.5361 14.1667 17.0758C14.1667 16.6156 14.5398 16.2425 15 16.2425C15.4602 16.2425 15.8333 16.6156 15.8333 17.0758C15.8333 17.5361 15.4602 17.9092 15 17.9092ZM6.66667 17.9092C6.20643 17.9092 5.83333 17.5361 5.83333 17.0758C5.83333 16.6156 6.20643 16.2425 6.66667 16.2425C7.1269 16.2425 7.5 16.6156 7.5 17.0758C7.5 17.5361 7.1269 17.9092 6.66667 17.9092Z" stroke="black" stroke-width="1.6" stroke-linecap="round" stroke-linejoin="round"/>
</g>
</svg>
