<svg width="current" height="current" viewBox="0 0 100 112" fill="none" xmlns="http://www.w3.org/2000/svg">
<path d="M36.8812 48.1654V5.46414C46.7525 5.64577 55.8911 8.20865 64.3069 13.1427V5H3V13.1427C10.7525 8.20865 19.8911 5.64577 30.4257 5.46414V48.1553C31.505 48.0948 32.495 48.0645 33.4257 48.0645C34.604 48.0645 35.7624 48.0948 36.8812 48.1654Z" fill="#181717"/>
<path d="M93.2368 54.8234C90.9002 52.3816 87.9398 50.6461 84.3358 49.5968C80.7319 48.5474 76.5338 47.9319 71.7517 47.7503C78.2863 47.2559 83.6229 45.702 87.7418 43.0786C91.8606 40.4551 93.92 36.7723 93.92 32.0198C93.92 21.405 85.6229 16.0977 69.0388 16.0977H42.0586V48.7694C42.1774 48.7896 42.2962 48.7996 42.4051 48.8198C44.6725 49.2335 46.7418 49.849 48.5932 50.6159V48.0328H68.8507C75.6923 48.0328 80.9398 49.3748 84.613 52.0587C88.2764 54.7427 90.1081 58.7081 90.1081 63.955C90.1081 69.2018 88.3655 73.3488 84.8903 76.2144C81.4051 79.08 76.4249 80.5229 69.9497 80.5229H56.722C56.8606 80.644 56.9794 80.7751 57.1081 80.8962H71.3061C88.2566 80.8962 96.7418 75.2458 96.7418 63.955C96.7418 60.3124 95.5734 57.2753 93.2467 54.8335L93.2368 54.8234ZM67.3061 47.6494H48.5932V16.4609H68.0289C74.6923 16.4609 79.613 17.6818 82.7913 20.1135C85.9695 22.5553 87.5635 26.4198 87.5635 31.7272C87.5635 37.0346 85.7319 40.8587 82.0685 43.573C78.4051 46.2872 73.4843 47.6494 67.3061 47.6494Z" fill="#181717"/>
<path d="M42.0597 75.9735C40.1191 75.3883 38.0102 74.8233 35.7231 74.2683C32.8122 73.4914 30.7726 72.9465 29.5844 72.6337C28.3963 72.3209 26.6835 71.8164 24.426 71.1101C22.1686 70.4139 20.5646 69.7883 19.6141 69.2434C18.6538 68.6986 17.5646 68.0326 16.3468 67.2557C15.1191 66.4788 14.2874 65.6211 13.8221 64.6827C13.3666 63.7443 13.129 62.695 13.129 61.5245C13.129 58.2553 14.8716 55.5815 18.3468 53.5231C21.2379 51.8078 25.2775 50.8088 30.426 50.5263C31.4656 50.4658 32.525 50.4254 33.6537 50.4254C34.7825 50.4254 35.832 50.486 36.8716 50.607C38.7033 50.8088 40.426 51.1923 42.0498 51.7472C42.6835 51.9692 43.3072 52.2013 43.9112 52.4737C45.7132 53.291 47.2676 54.2193 48.5943 55.2687C49.4953 55.975 50.2874 56.7418 50.9706 57.5591C52.6538 59.5872 53.9112 61.6153 54.7528 63.6333C55.5943 65.6615 56.0498 67.5281 56.129 69.2434H56.4755C58.9211 64.8845 58.0597 60.5962 53.8914 56.3887C52.4458 54.9256 50.6736 53.735 48.5943 52.7764C46.6835 51.8986 44.5052 51.2427 42.0498 50.7887C40.4359 50.4961 38.7132 50.2842 36.8716 50.1732C35.7627 50.1025 34.6141 50.0723 33.4161 50.0723C32.3864 50.0723 31.3963 50.1126 30.4161 50.1631C24.7924 50.486 20.03 51.7371 16.1587 53.9267C11.6042 56.4997 9.33692 60.1624 9.33692 64.9148C9.33692 69.6672 11.3666 73.6225 15.4161 76.3065C19.4656 78.9905 25.624 81.3515 33.8815 83.3797C34.1884 83.4604 34.6835 83.5714 35.3765 83.7328C38.4359 84.5097 40.9805 85.1959 43.0003 85.7811C45.0201 86.3663 47.129 87.1231 49.3072 88.0615C51.4854 88.9998 53.1092 90.1299 54.1785 91.4517C55.2478 92.7735 55.7825 94.2568 55.7825 95.8914C55.7825 99.3926 53.9508 102.107 50.2775 104.014C46.6042 105.921 41.1785 106.879 33.9904 106.879C28.9409 106.879 24.4854 105.689 20.6339 103.318C16.7726 100.947 14.0003 98.3533 12.3171 95.5483C10.6339 92.7433 9.68345 90.0997 9.44583 87.5973H9.09929C6.49533 92.6625 7.56464 97.2031 12.3072 101.209C17.0498 105.225 24.2676 107.233 33.9805 107.233C41.931 107.233 48.1785 105.951 52.733 103.378C57.2775 100.805 59.5547 96.9912 59.5547 91.926C59.5547 86.8607 57.6835 83.3595 53.931 80.9379C53.9013 80.9177 53.8716 80.9076 53.8419 80.8874C53.6438 80.7663 53.426 80.6452 53.2181 80.5141C51.9112 79.7371 50.3765 78.9804 48.5745 78.2438C46.6736 77.4669 44.4854 76.7101 42.03 75.9836L42.0597 75.9735Z" fill="#181717"/>
</svg>
