<svg xmlns="http://www.w3.org/2000/svg" width="38" height="38" viewBox="0 0 38 38" fill="none">
  <path d="M8.43705 36.783C8.20153 36.7183 7.9722 36.6083 7.77386 36.4531C7.12927 35.955 6.85035 35.0947 7.07348 34.2927L10.0485 23.5941L1.71838 16.6212C1.09238 16.0973 0.844462 15.2241 1.09858 14.4285C1.3527 13.6329 2.05308 13.0895 2.85262 13.0636L13.5194 12.7079L17.3064 2.28743C17.5915 1.50477 18.3105 0.9873 19.1101 1.00024C19.265 1.00024 19.42 1.01964 19.5687 1.05845C20.1761 1.22016 20.6782 1.68588 20.8951 2.31977L24.5147 12.7984L35.1816 13.3288C35.3117 13.3288 35.4357 13.3547 35.5596 13.3871C36.1918 13.5552 36.7125 14.0533 36.9108 14.7195C37.1525 15.5151 36.8922 16.3884 36.26 16.8994L27.8307 23.7299L30.6384 34.4738C30.8491 35.2823 30.5578 36.1426 29.907 36.6277C29.4422 36.977 28.8596 37.0805 28.3203 36.9382C28.1096 36.88 27.9051 36.7894 27.7191 36.6536L18.8869 30.3923L9.96177 36.5048C9.50311 36.8218 8.95149 36.9059 8.44325 36.77L8.43705 36.783Z" fill="#181717" stroke="#181717" stroke-width="2" stroke-linecap="round" stroke-linejoin="round"/>
</svg>