<svg xmlns="http://www.w3.org/2000/svg" width="24" height="21" viewBox="0 0 24 21" fill="none">
  <path d="M1.95866 3.10278C3.06895 1.7059 4.63373 0.896459 6.37029 0.811751L6.37029 0.811763L6.37373 0.811571C6.47029 0.806194 6.57281 0.804688 6.67897 0.804688C8.31236 0.804688 9.85322 1.43465 11.0201 2.58163L11.0202 2.58176C11.2309 2.78869 11.425 3.0088 11.6041 3.24095L12.0016 3.75645L12.3971 3.23943C12.5731 3.00933 12.7682 2.78957 12.9798 2.58176L12.9799 2.58163C14.1468 1.4346 15.6862 0.804688 17.321 0.804688C17.4216 0.804688 17.5267 0.807479 17.6314 0.811835C19.3673 0.896996 20.9314 1.70635 22.0413 3.10275C23.2427 4.61453 23.7384 6.59736 23.3918 8.54479L23.3918 8.545C22.9417 11.0798 21.3524 13.5632 18.5857 15.9194C16.4571 17.7302 14.1968 18.9774 13.0363 19.5591L13.0356 19.5594C12.7167 19.7199 12.3571 19.8046 11.9992 19.8047C11.6427 19.8046 11.2827 19.719 10.9621 19.559C9.80264 18.9771 7.54111 17.73 5.41281 15.9194C2.64617 13.5633 1.0583 11.0799 0.608218 8.545L0.608181 8.54479C0.261566 6.59736 0.75726 4.61456 1.95866 3.10278ZM1.95866 3.10278L1.56725 2.79167M1.95866 3.10278L1.56725 2.79167M1.56725 2.79167C2.76497 1.28478 4.46226 0.404228 6.34593 0.312344L0.115918 8.63241C-0.255317 6.54665 0.2748 4.41801 1.56725 2.79167Z" fill="#181717" stroke="#181717"/>
</svg>