<svg width="28" height="28" viewBox="0 0 24 25" fill="none" xmlns="http://www.w3.org/2000/svg">
<mask id="mask0_69_871" style="mask-type:luminance" maskUnits="userSpaceOnUse" x="0" y="0" width="24" height="25">
<path d="M24 0.0913696H0V24.0914H24V0.0913696Z" fill="white"/>
</mask>
<g mask="url(#mask0_69_871)">
<path d="M23.52 12.3634C23.52 11.5125 23.4437 10.6943 23.3018 9.90881H12V14.5507H18.4582C18.18 16.0507 17.3346 17.3216 16.0637 18.1725V21.1834H19.9418C22.2109 19.0943 23.52 16.0179 23.52 12.3634Z" fill="#4285F4"/>
<path d="M11.9996 24.0923C15.2396 24.0923 17.9559 23.0177 19.9413 21.185L16.0631 18.1741C14.9886 18.8941 13.614 19.3195 11.9996 19.3195C8.87404 19.3195 6.22864 17.2086 5.28496 14.3723H1.27588V17.4813C3.25048 21.4032 7.30864 24.0923 11.9996 24.0923Z" fill="#34A853"/>
<path d="M5.2854 14.371C5.0454 13.651 4.90908 12.8819 4.90908 12.091C4.90908 11.3001 5.0454 10.531 5.2854 9.81098V6.7019H1.27632C0.463679 8.3219 0 10.1547 0 12.091C0 14.0273 0.463679 15.8601 1.27632 17.4801L5.2854 14.371Z" fill="#FBBC04"/>
<path d="M11.9996 4.86413C13.7613 4.86413 15.3431 5.46953 16.5868 6.65861L20.0286 3.21677C17.9505 1.28045 15.234 0.0913696 11.9996 0.0913696C7.30864 0.0913696 3.25048 2.78045 1.27588 6.70229L5.28496 9.81137C6.22864 6.97505 8.87404 4.86413 11.9996 4.86413Z" fill="#E94235"/>
</g>
</svg>
