<svg xmlns="http://www.w3.org/2000/svg" width="61" height="42" viewBox="0 0 61 42" fill="none">
  <path d="M59.9297 15.498H56.1334C56.1334 15.498 53.5736 23.8585 45.1871 24.6157C39.803 25.0984 43.4357 31.2138 43.4357 31.2138C43.4357 31.2138 56.8599 29.0661 59.9249 15.498H59.9297Z" fill="#FCF8EF" stroke="black" stroke-width="2" stroke-miterlimit="10" stroke-linejoin="round"/>
  <path d="M1.84979 14.09C4.26999 10.2109 11.1505 9.66623 17.2131 12.8722C21.0527 14.9004 23.6461 17.9514 24.4111 20.9006C22.9677 19.2356 20.8698 17.5883 18.3101 16.2377C12.2475 13.0317 5.91554 12.6996 4.16895 15.4982C2.42236 18.2968 5.92517 23.1634 11.9877 26.3694C14.3261 27.6049 16.703 28.4108 18.8442 28.7784C15.7985 29.3806 11.9829 28.7917 8.44161 26.9185C2.37906 23.7125 -0.575232 17.9691 1.84498 14.0944L1.84979 14.09Z" fill="#FCF8EF" stroke="black" stroke-width="2" stroke-miterlimit="10" stroke-linejoin="round"/>
  <path d="M24.955 4.30344C24.955 6.12786 26.562 7.60689 28.5444 7.60689C30.5267 7.60689 32.1338 6.12786 32.1338 4.30344C32.1338 2.47902 30.5267 1 28.5444 1C26.562 1 24.955 2.47902 24.955 4.30344Z" fill="#FCF8EF" stroke="black" stroke-width="2" stroke-miterlimit="10" stroke-linejoin="round"/>
  <path d="M17.5687 10.0693C20.5182 12.5358 24.4348 14.0414 28.7315 14.0414C33.0282 14.0414 36.8197 12.5801 39.7547 10.1845C45.2351 12.9565 48.8438 17.6991 48.8438 23.0883C48.8438 31.6347 39.7547 38.5649 28.5438 38.5649C17.3329 38.5649 8.24872 31.6347 8.24872 23.0883C8.24872 17.6239 11.9632 12.8281 17.5687 10.0738V10.0693Z" fill="#FCF8EF" stroke="black" stroke-width="2" stroke-miterlimit="10" stroke-linejoin="round"/>
  <path d="M17.5111 10.0695C20.6771 8.5152 24.4446 7.60742 28.4863 7.60742C32.528 7.60742 36.4831 8.55506 39.6924 10.1802C36.7622 12.5803 32.9033 14.0372 28.6691 14.0372C24.435 14.0372 20.4558 12.5316 17.5063 10.0651L17.5111 10.0695Z" fill="#FCF8EF" stroke="black" stroke-width="2" stroke-miterlimit="10" stroke-linejoin="round"/>
  <path d="M16.4813 38.7419C16.4813 39.4991 17.4725 40.1146 18.6898 40.1146H38.3931C39.6153 40.1146 40.6064 39.4991 40.6064 38.7419C40.6064 37.9847 39.6201 37.3691 38.3931 37.3691H18.6898C17.4677 37.3691 16.4813 37.9847 16.4813 38.7419Z" fill="#FCF8EF" stroke="black" stroke-width="2" stroke-miterlimit="10" stroke-linejoin="round"/>
</svg>