<svg width="current" height="current" viewBox="0 0 139 42" fill="none" xmlns="http://www.w3.org/2000/svg">
<g clip-path="url(#clip0_189_428)">
<path d="M10.0736 25.7588C10.6026 25.7588 10.7348 25.9351 10.7348 26.1555C10.7348 26.4641 10.3381 26.5963 9.7176 26.5963C7.15426 26.5963 -0.00341797 23.8126 -0.00341797 15.9056C-0.00341797 7.99856 8.13077 1.14943 19.7506 1.14943C25.6706 1.14943 30.4888 1.90216 34.5948 2.56334C36.8056 0.973119 39.4096 0 42.5934 0C45.4653 0 47.4963 1.14943 47.4963 2.65149C47.4963 3.97724 46.1706 5.0826 43.9632 5.0826C41.3999 5.0826 38.4399 4.59773 34.9949 4.02132C23.6837 13.0778 24.3042 41.0914 9.14797 41.0914C3.97721 41.0914 1.63766 36.453 1.63766 36.0088C1.63766 35.8325 1.85805 35.6562 1.99029 35.6562C2.34292 35.6562 4.37731 39.7656 9.36836 39.7656C21.829 39.7656 22.402 13.6101 33.1403 3.75685C29.3393 3.18383 24.9654 2.60742 19.8862 2.60742C8.79195 2.60742 1.72243 9.28023 1.72243 16.2582C1.72243 23.2362 7.55436 25.7588 10.0736 25.7588ZM36.6292 2.91597C39.1485 3.31267 41.3999 3.62122 43.4343 3.62122C45.289 3.62122 45.9535 3.13636 45.9535 2.47179C45.9535 1.71906 44.6719 1.2342 42.9935 1.2342C40.5183 1.2342 38.4432 1.8513 36.6326 2.91257L36.6292 2.91597Z" fill="black"/>
<path d="M33.8016 31.1942C31.4145 31.1942 29.4717 29.7803 29.4717 27.261C29.4717 23.1516 34.9951 18.6895 38.3959 18.6895C39.7657 18.6895 40.6948 19.4863 40.6948 20.5882C40.6948 23.2397 34.7747 25.6708 31.106 26.5965C31.0178 26.8609 31.0178 27.1254 31.0178 27.3933C31.0178 28.9394 32.1673 29.9125 33.8016 29.9125C39.1045 29.9125 43.1699 24.9181 43.1699 24.9181C43.1699 24.9181 43.3903 24.6536 43.6107 24.6536C43.8752 24.6536 44.0956 24.9181 44.0956 25.1385C44.0956 25.3148 43.8752 25.5793 43.8752 25.5793C43.8752 25.5793 38.9282 31.1908 33.8016 31.1908V31.1942ZM31.5027 25.3182C34.8594 24.4332 39.369 22.3141 39.369 20.4594C39.369 20.3271 39.2368 19.9304 38.5722 19.9304C36.1411 19.9304 32.7844 22.5819 31.5027 25.3216V25.3182Z" fill="black"/>
<path d="M51.2532 26.1116C49.5307 28.0985 46.2588 31.1027 44.0074 31.1027C42.6816 31.1027 41.7085 30.3059 41.7085 28.8038C41.7085 24.4739 48.0253 18.5098 52.8875 18.5098C55.0982 18.5098 55.9798 19.6592 55.9798 20.7646C55.9798 21.6495 55.3627 22.2666 55.0507 22.2666C54.8744 22.2666 54.6981 22.1344 54.6981 21.914C54.6981 21.6054 54.8303 21.4291 54.8303 20.9849C54.8303 20.5882 54.6099 19.7033 53.2842 19.7033C48.6017 19.7033 43.2106 25.3148 43.2106 28.8038C43.2106 29.4209 43.5191 29.821 44.1396 29.821C45.9943 29.821 48.9543 27.0813 50.4123 25.3148C51.6058 23.9009 52.3552 22.6192 52.8434 22.6192C53.196 22.6192 53.5487 22.9719 53.5487 23.3245C53.5487 23.633 52.6637 24.6943 52.6637 26.1964C52.6637 27.7866 53.4605 28.4512 54.4302 28.4512C55.7119 28.4512 57.3462 27.4781 59.6451 24.9181C59.6451 24.9181 59.8655 24.6536 60.0418 24.6536C60.3063 24.6536 60.5707 24.9181 60.5707 25.1385C60.5707 25.3148 60.3503 25.5793 60.3503 25.5793C57.8752 28.2749 55.8441 29.6006 54.2099 29.6006C52.4874 29.6006 51.2498 28.0985 51.2498 26.1116H51.2532Z" fill="black"/>
<path d="M73.2992 36.8937C73.2992 38.2635 74.669 39.6774 77.6731 39.6774C83.5491 39.6774 89.337 35.0831 89.337 29.736C89.337 25.4502 84.4341 23.9922 83.5051 23.9922C82.7998 23.9922 81.2503 24.5212 80.1924 24.5212C78.9548 24.5212 78.4259 24.0363 78.4259 23.4158C78.4259 22.7953 79.1311 22.3105 80.1924 22.3105C80.9451 22.3105 82.2675 22.619 82.7998 22.619C86.4685 22.619 97.4678 18.0247 97.4678 10.5144C97.4678 5.83188 93.6669 2.51582 84.6545 2.51582C72.1498 2.51582 61.103 9.18863 61.103 15.4173C61.103 18.2892 62.8254 19.7031 65.3006 19.7031C66.9349 19.7031 67.9962 18.9978 68.3048 18.9978C68.5251 18.9978 68.6133 19.1741 68.6133 19.3064C68.6133 19.659 67.0231 20.7643 64.8565 20.7643C62.1168 20.7643 59.5535 19.13 59.5535 15.5936C59.5535 8.21552 71.2614 1.146 84.6511 1.146C94.6366 1.146 99.1428 4.85877 99.1428 10.4703C99.1428 18.4689 87.9197 22.931 85.7565 23.3277C85.7565 23.3277 90.8831 24.8738 90.8831 29.736C90.8831 36.0528 84.3426 41.0032 77.6291 41.0032C73.6518 41.0032 71.7531 39.0162 71.7531 36.9819C71.7531 32.652 78.158 30.621 85.4513 30.621C85.9362 30.621 86.4244 30.7973 86.4244 31.0618C86.4244 31.3262 86.0718 31.5466 85.4513 31.5466C78.9548 31.5466 73.2992 33.4454 73.2992 36.8937ZM86.7771 7.86628C86.7771 8.21891 86.5567 8.4393 86.0243 8.70716C81.6945 10.9619 70.6036 23.1548 70.6036 30.8888C70.6036 31.1533 70.2951 31.2855 70.0747 31.2855C69.678 31.2855 69.1016 30.8888 69.1016 30.2684C69.1016 22.0494 83.3288 7.2051 86.0684 7.2051C86.5533 7.2051 86.7737 7.60181 86.7737 7.86628H86.7771Z" fill="black"/>
<path d="M99.1462 30.7533C97.2033 30.7533 95.7894 29.4716 95.7894 27.3083C95.7894 19.9303 105.466 6.36426 109.62 6.36426C110.725 6.36426 111.519 7.06951 111.519 8.21895C111.519 11.5316 103.123 20.1473 97.556 25.274C97.556 25.274 97.1592 25.8911 97.1592 27.305C97.1592 28.7189 97.9086 29.4716 99.37 29.4716C102.374 29.4716 105.866 25.5825 106.439 24.9213C106.439 24.9213 106.66 24.6569 106.836 24.6569C107.101 24.6569 107.365 24.9213 107.365 25.1417C107.365 25.318 107.145 25.5825 107.145 25.5825C106.528 26.2878 102.33 30.7533 99.1462 30.7533ZM97.7763 23.5074C102.591 19.1335 110.237 11.0908 110.237 8.04263C110.237 7.82224 110.105 7.51369 109.664 7.51369C107.057 7.51369 100.119 16.3938 97.7797 23.5074H97.7763Z" fill="black"/>
<path d="M108.162 30.3092C106.616 30.3092 105.51 29.336 105.51 27.7458C105.51 24.7417 110.061 18.7775 110.813 18.7775C111.387 18.7775 111.519 19.1742 111.519 19.4421C111.519 19.5303 111.431 19.7506 111.254 19.971C110.193 21.2527 107.013 25.274 107.013 27.7458C107.013 28.6749 107.63 29.1597 108.471 29.1597C111.431 29.1597 115.187 24.918 115.187 24.918C115.187 24.918 115.408 24.6535 115.584 24.6535C115.849 24.6535 116.113 24.918 116.113 25.1384C116.113 25.3147 115.893 25.5792 115.893 25.5792C115.893 25.5792 111.563 30.3058 108.162 30.3058V30.3092ZM115.716 13.4305C115.716 14.2273 114.964 15.3292 114.258 15.3292C113.774 15.3292 113.418 14.9766 113.418 14.5324C113.418 13.7831 114.123 12.6777 114.875 12.6777C115.449 12.6777 115.716 13.0744 115.716 13.4271V13.4305Z" fill="black"/>
<path d="M121.46 28.19C123.271 27.7051 125.041 26.7761 126.631 24.9214C126.631 24.9214 126.851 24.6569 127.028 24.6569C127.292 24.6569 127.557 24.9214 127.557 25.1418C127.557 25.3181 127.336 25.5825 127.336 25.5825C125.393 27.7933 123.227 28.763 121.24 29.2072C120.575 31.15 118.632 32.3876 116.689 32.3876C115.011 32.3876 113.95 31.3704 113.95 30.4447C113.95 29.2072 114.923 28.6782 116.293 28.6782C117.53 28.6782 118.768 28.6782 120.05 28.4578C120.094 28.2374 120.138 27.973 120.138 27.7051C120.138 25.3622 118.68 23.9923 118.592 22.0936C118.592 22.0936 117.707 23.5515 115.896 25.5825C115.896 25.5825 115.676 25.8029 115.455 25.8029C115.191 25.8029 114.97 25.5385 114.97 25.3622C114.97 25.1858 115.191 24.9214 115.191 24.9214C116.869 23.0667 118.195 20.9882 118.992 19.5743C119.741 18.2045 120.494 17.0991 121.023 17.0991C121.508 17.0991 121.908 17.6721 121.908 17.9841C121.908 18.4689 120.009 19.9269 120.009 21.6087C120.009 23.5956 121.511 24.8332 121.511 27.7492C121.511 27.9255 121.511 28.0577 121.467 28.19H121.46ZM119.694 29.5157C117.13 29.8243 115.231 29.4716 115.231 30.3566C115.231 30.8415 115.672 31.2856 116.734 31.2856C117.971 31.2856 119.077 30.5804 119.694 29.5191V29.5157Z" fill="black"/>
<path d="M132.904 28.19C134.714 27.7051 136.481 26.7761 138.074 24.9214C138.074 24.9214 138.295 24.6569 138.471 24.6569C138.736 24.6569 139 24.9214 139 25.1418C139 25.3181 138.78 25.5825 138.78 25.5825C136.837 27.7933 134.67 28.763 132.683 29.2072C132.019 31.15 130.076 32.3876 128.133 32.3876C126.455 32.3876 125.393 31.3704 125.393 30.4447C125.393 29.2072 126.366 28.6782 127.736 28.6782C128.974 28.6782 130.211 28.6782 131.493 28.4578C131.537 28.2374 131.581 27.973 131.581 27.7051C131.581 25.3622 130.123 23.9923 130.035 22.0936C130.035 22.0936 129.15 23.5515 127.34 25.5825C127.34 25.5825 127.119 25.8029 126.899 25.8029C126.634 25.8029 126.414 25.5385 126.414 25.3622C126.414 25.1858 126.634 24.9214 126.634 24.9214C128.313 23.0667 129.638 20.9882 130.435 19.5743C131.185 18.2045 131.937 17.0991 132.466 17.0991C132.951 17.0991 133.351 17.6721 133.351 17.9841C133.351 18.4689 131.452 19.9269 131.452 21.6087C131.452 23.5956 132.954 24.8332 132.954 27.7492C132.954 27.9255 132.954 28.0577 132.91 28.19H132.904ZM131.137 29.5157C128.574 29.8243 126.675 29.4716 126.675 30.3566C126.675 30.8415 127.116 31.2856 128.177 31.2856C129.415 31.2856 130.52 30.5804 131.137 29.5191V29.5157Z" fill="black"/>
</g>
<defs>
<clipPath id="clip0_189_428">
<rect width="139" height="41.0914" fill="white"/>
</clipPath>
</defs>
</svg>
