<svg xmlns="http://www.w3.org/2000/svg" width="12" height="12" viewBox="0 0 12 12" fill="none">
  <path d="M2.26893 6.83166L2.26893 6.83166C2.26813 6.83246 2.26733 6.83326 2.26653 6.83406C2.25632 6.84427 2.24617 6.85439 2.23609 6.86445C2.07362 7.02657 1.9298 7.17009 1.82843 7.34912C1.72707 7.52816 1.678 7.72533 1.62256 7.94806C1.61886 7.96295 1.61512 7.97796 1.61134 7.99308L1.21704 9.57028C1.21483 9.57914 1.2126 9.58805 1.21036 9.59698C1.17112 9.75367 1.12921 9.92101 1.11546 10.0615C1.10032 10.2163 1.10385 10.4773 1.31326 10.6867C1.52267 10.8961 1.78373 10.8997 1.93846 10.8845C2.079 10.8708 2.24634 10.8289 2.40303 10.7896C2.41196 10.7874 2.42086 10.7852 2.42972 10.783L4.00692 10.3887C4.02204 10.3849 4.03704 10.3811 4.05193 10.3774C4.27467 10.322 4.47184 10.2729 4.65087 10.1716C4.8299 10.0702 4.97343 9.92638 5.13555 9.76391C5.14639 9.75304 5.15732 9.74209 5.16834 9.73107L10.2574 4.64201L10.2699 4.62955C10.4406 4.45878 10.588 4.31144 10.7005 4.18065C10.8192 4.04279 10.9259 3.89365 10.9932 3.71127C11.1167 3.37632 11.1167 3.0083 10.9932 2.67335C10.9259 2.49096 10.8192 2.34183 10.7005 2.20396C10.588 2.07318 10.4407 1.92585 10.2699 1.75509L10.2574 1.7426L10.2449 1.73012C10.0742 1.55934 9.92682 1.412 9.79604 1.29947C9.65817 1.18084 9.50904 1.0741 9.32665 1.00685C8.9917 0.883336 8.62368 0.883336 8.28873 1.00685C8.10635 1.0741 7.95721 1.18084 7.81935 1.29947C7.68856 1.41201 7.54123 1.55935 7.37046 1.73012L7.35799 1.7426L2.26893 6.83166Z" stroke="#9E9E9E"/>
  <path d="M6.99283 2.7147L8.83721 1.00287L11.25 3.25092L9.25 5.00091L6.99283 2.7147Z" fill="#9E9E9E"/>
</svg>