<svg width="25" height="15" viewBox="0 0 25 15" fill="none" xmlns="http://www.w3.org/2000/svg">
<path id="Arrow 3" d="M1 6.5C0.447715 6.5 4.82823e-08 6.94772 0 7.5C-4.82823e-08 8.05228 0.447715 8.5 1 8.5L1 6.5ZM24.7071 8.20711C25.0976 7.81658 25.0976 7.18342 24.7071 6.7929L18.3431 0.428934C17.9526 0.0384093 17.3195 0.0384092 16.9289 0.428934C16.5384 0.819458 16.5384 1.45262 16.9289 1.84315L22.5858 7.5L16.9289 13.1569C16.5384 13.5474 16.5384 14.1805 16.9289 14.5711C17.3195 14.9616 17.9526 14.9616 18.3431 14.5711L24.7071 8.20711ZM1 8.5L24 8.5L24 6.5L1 6.5L1 8.5Z" fill="none"/>
</svg>
